<svg xmlns="http://www.w3.org/2000/svg" viewBox="0 0 1200 360" width="1200" height="360" role="img"><defs><linearGradient id="bg" x1="0" y1="0" x2="1" y2="1"><stop offset="0" stop-color="#0d0d10"/><stop offset="1" stop-color="#e01327"/></linearGradient><radialGradient id="gl" cx="0.5" cy="0.35" r="0.75"><stop offset="0" stop-color="#ff5065" stop-opacity="0.35"/><stop offset="1" stop-color="#ff5065" stop-opacity="0"/></radialGradient></defs><rect width="1200" height="360" fill="url(#bg)"/><rect width="1200" height="360" fill="url(#gl)"/><circle cx="1217" cy="-25" r="103" fill="#ff5065" opacity="0.085"/><circle cx="175" cy="-25" r="151" fill="#ff5065" opacity="0.08"/><circle cx="126" cy="88" r="145" fill="#ff5065" opacity="0.044"/><circle cx="892" cy="205" r="104" fill="#ff5065" opacity="0.044"/><circle cx="755" cy="382" r="48" fill="#ff5065" opacity="0.1"/><circle cx="631" cy="329" r="45" fill="#ff5065" opacity="0.062"/><circle cx="-13" cy="-13" r="97" fill="#ff5065" opacity="0.08"/><line x1="0" y1="220" x2="1200" y2="244" stroke="#ff5065" stroke-width="1" opacity="0.05"/><line x1="0" y1="180" x2="1200" y2="177" stroke="#ff5065" stroke-width="1" opacity="0.05"/><line x1="0" y1="222" x2="1200" y2="245" stroke="#ff5065" stroke-width="1" opacity="0.05"/><rect y="50" width="1200" height="260" fill="#000000" opacity="0.20"/><text x="600" y="148" text-anchor="middle" font-family="&#39;Segoe UI&#39;,&#39;Arial&#39;,sans-serif" font-size="70.0" font-weight="700" fill="#ffffff" textLength="1050.0" lengthAdjust="spacingAndGlyphs">AOMEI Partition Assistant</text><text x="600" y="222.2" text-anchor="middle" font-family="&#39;Segoe UI&#39;,&#39;Arial&#39;,sans-serif" font-size="70.0" font-weight="700" fill="#ffffff" textLength="756.0" lengthAdjust="spacingAndGlyphs">Server Full Access</text><rect x="530" y="244.2" width="140" height="4" rx="2" fill="#ff5065"/><text x="600" y="282.2" text-anchor="middle" font-family="&#39;Segoe UI&#39;,&#39;Arial&#39;,sans-serif" font-size="28.0" font-weight="400" fill="#ffffff" fill-opacity="0.85" textLength="1050.0" lengthAdjust="spacingAndGlyphs">Unlocks full server access for AOMEI Partition Assistant with product k…</text></svg>